<?xml version="1.0" encoding="utf-8"?>
<!-- Generator: Adobe Illustrator 16.0.0, SVG Export Plug-In . SVG Version: 6.00 Build 0)  -->
<!DOCTYPE svg PUBLIC "-//W3C//DTD SVG 1.1//EN" "http://www.w3.org/Graphics/SVG/1.1/DTD/svg11.dtd">
<svg version="1.1" id="Ebene_1" xmlns="http://www.w3.org/2000/svg" xmlns:xlink="http://www.w3.org/1999/xlink" x="0px" y="0px"
	 width="74.249px" height="47.667px" viewBox="0 0 74.249 47.667" style="enable-background:new 0 0 74.249 47.667;"
	 xml:space="preserve">
<style type="text/css">
<![CDATA[
	.st0{fill-rule:evenodd;clip-rule:evenodd;fill:#DB3951;}
]]>
</style>
<g>
	<path class="st0" d="M73.624,7.462c0,13.374,0,26.479,0,39.706c-24.326,0-48.608,0-72.998,0c0-13.151,0-26.289,0-39.658
		C1.143,7.851,1.594,8.13,2.025,8.437c11.271,8.012,22.547,16.015,33.792,24.064c0.954,0.683,1.579,0.699,2.542,0.009
		c11.243-8.05,22.521-16.053,33.792-24.064C72.563,8.154,72.991,7.883,73.624,7.462z"/>
	<path class="st0" d="M1.526,0.501c23.714,0,47.43,0,71.453,0c-0.465,0.419-0.713,0.694-1.008,0.903
		C60.699,9.406,49.421,17.399,38.148,25.4c-0.602,0.428-1.064,0.769-1.875,0.189C24.807,17.415,13.313,9.281,1.824,1.141
		c-0.167-0.117-0.353-0.207-0.53-0.31C1.371,0.721,1.449,0.611,1.526,0.501z"/>
</g>
</svg>
