<?xml version="1.0" encoding="utf-8"?>
<!-- Generator: Adobe Illustrator 16.0.0, SVG Export Plug-In . SVG Version: 6.00 Build 0)  -->
<!DOCTYPE svg PUBLIC "-//W3C//DTD SVG 1.1//EN" "http://www.w3.org/Graphics/SVG/1.1/DTD/svg11.dtd">
<svg version="1.1" id="Ebene_1" xmlns="http://www.w3.org/2000/svg" xmlns:xlink="http://www.w3.org/1999/xlink" x="0px" y="0px"
	 width="74.249px" height="53.168px" viewBox="0 0 74.249 53.168" style="enable-background:new 0 0 74.249 53.168;"
	 xml:space="preserve">
<style type="text/css">
<![CDATA[
	.st0{fill-rule:evenodd;clip-rule:evenodd;fill:#DB3951;}
]]>
</style>
<g>
	<path class="st0" d="M5.818,13.416c6.841-2.921,13.456-5.749,20.072-8.573c3.407-1.454,6.806-2.924,10.232-4.332
		c0.498-0.206,1.195-0.306,1.675-0.125c9.172,3.427,18.325,6.904,27.479,10.376c0.192,0.072,0.367,0.187,0.703,0.362
		c-0.486,0.251-0.846,0.451-1.218,0.629c-9.441,4.535-18.881,9.077-28.339,13.578c-0.505,0.241-1.267,0.367-1.754,0.167
		c-9.368-3.86-18.713-7.776-28.062-11.682C6.418,13.737,6.241,13.632,5.818,13.416z"/>
	<path class="st0" d="M66.05,24.925c-0.594,0.319-0.946,0.526-1.312,0.702c-9.438,4.537-18.874,9.079-28.33,13.579
		c-0.504,0.24-1.27,0.344-1.761,0.142c-9.328-3.839-18.632-7.734-27.941-11.62c-0.218-0.091-0.42-0.218-0.87-0.457
		c1.664-0.674,3.103-1.258,4.542-1.841c2.09-0.847,4.164-1.741,6.283-2.509c0.562-0.204,1.34-0.217,1.888,0.005
		c5.323,2.162,10.625,4.378,15.914,6.621c0.78,0.331,1.393,0.297,2.154-0.074c5.587-2.723,11.197-5.399,16.808-8.071
		c0.395-0.188,0.928-0.41,1.291-0.292C58.421,22.316,62.104,23.586,66.05,24.925z"/>
	<path class="st0" d="M66.042,38.233c-0.591,0.316-0.946,0.523-1.313,0.7c-9.441,4.537-18.881,9.081-28.34,13.58
		c-0.504,0.239-1.269,0.332-1.762,0.128c-9.369-3.862-18.713-7.777-28.063-11.684c-0.153-0.064-0.298-0.145-0.647-0.316
		c0.444-0.226,0.74-0.405,1.056-0.533c2.997-1.219,5.984-2.463,9.009-3.612c0.556-0.212,1.341-0.219,1.89,0.005
		c5.521,2.248,11.019,4.551,16.507,6.875c0.811,0.342,1.47,0.34,2.28-0.053c5.778-2.82,11.575-5.605,17.394-8.339
		c0.572-0.268,1.405-0.318,2.007-0.126C59.324,35.895,62.554,37.04,66.042,38.233z"/>
</g>
</svg>
