<?xml version="1.0" encoding="utf-8"?>
<!-- Generator: Adobe Illustrator 16.0.0, SVG Export Plug-In . SVG Version: 6.00 Build 0)  -->
<!DOCTYPE svg PUBLIC "-//W3C//DTD SVG 1.1//EN" "http://www.w3.org/Graphics/SVG/1.1/DTD/svg11.dtd">
<svg version="1.1" id="Ebene_1" xmlns="http://www.w3.org/2000/svg" xmlns:xlink="http://www.w3.org/1999/xlink" x="0px" y="0px"
	 width="74.249px" height="53.168px" viewBox="0 0 74.249 53.168" style="enable-background:new 0 0 74.249 53.168;"
	 xml:space="preserve">
<style type="text/css">
<![CDATA[
	.st0{fill-rule:evenodd;clip-rule:evenodd;fill:#DB3951;}
]]>
</style>
<g>
	<path class="st0" d="M37.185,52.866c-9.032-0.643-18.045-1.224-27.048-1.947c-4.376-0.353-7.602-3.292-8.329-7.65
		C-0.058,32.084-0.073,20.87,1.846,9.688c0.722-4.206,3.812-7.08,8.024-7.56c14.963-1.703,29.959-2.126,44.981-0.883
		c3.041,0.252,6.079,0.532,9.116,0.825c4.655,0.447,7.934,3.342,8.669,7.948c1.749,10.955,1.741,21.933,0.005,32.888
		c-0.728,4.582-3.915,7.644-8.408,8.008C55.232,51.646,46.219,52.224,37.185,52.866z M29.297,26.485
		c0,2.874-0.015,5.747,0.004,8.621c0.018,2.633,1.229,3.396,3.53,2.166c5.484-2.935,10.957-5.891,16.407-8.884
		c2.276-1.25,2.296-2.48,0.05-3.716c-5.503-3.024-11.027-6.01-16.567-8.962c-2.202-1.173-3.397-0.392-3.419,2.153
		C29.279,20.738,29.297,23.611,29.297,26.485z"/>
</g>
</svg>
